<svg width="470" height="470" viewBox="0 0 470 470" fill="none" xmlns="http://www.w3.org/2000/svg">
<g clip-path="url(#clip0_371_13)">
<circle cx="235" cy="235" r="235" fill="#FCFAF3"/>
<path d="M143.75 385.75C135.431 385.75 128.31 382.788 122.386 376.864C116.462 370.94 113.5 363.819 113.5 355.5V204.25C113.5 195.931 116.462 188.81 122.386 182.886C128.31 176.962 135.431 174 143.75 174H158.875V143.75C158.875 122.827 166.248 104.992 180.995 90.2453C195.742 75.4984 213.577 68.125 234.5 68.125C255.423 68.125 273.258 75.4984 288.005 90.2453C302.752 104.992 310.125 122.827 310.125 143.75V174H325.25C333.569 174 340.69 176.962 346.614 182.886C352.538 188.81 355.5 195.931 355.5 204.25V223.913C350.963 222.4 346.236 221.266 341.32 220.509C336.405 219.753 331.048 219.375 325.25 219.375C296.008 219.375 271.052 229.71 250.381 250.381C229.71 271.052 219.375 296.008 219.375 325.25C219.375 336.594 221.014 347.181 224.291 357.013C227.568 366.844 232.231 376.423 238.281 385.75H143.75ZM325.25 400.875C304.327 400.875 286.492 393.502 271.745 378.755C256.998 364.008 249.625 346.173 249.625 325.25C249.625 304.327 256.998 286.492 271.745 271.745C286.492 256.998 304.327 249.625 325.25 249.625C346.173 249.625 364.008 256.998 378.755 271.745C393.502 286.492 400.875 304.327 400.875 325.25C400.875 346.173 393.502 364.008 378.755 378.755C364.008 393.502 346.173 400.875 325.25 400.875ZM189.125 174H279.875V143.75C279.875 131.146 275.464 120.432 266.641 111.609C257.818 102.786 247.104 98.375 234.5 98.375C221.896 98.375 211.182 102.786 202.359 111.609C193.536 120.432 189.125 131.146 189.125 143.75V174ZM325.25 325.25C331.552 325.25 336.909 323.044 341.32 318.633C345.732 314.221 347.938 308.865 347.938 302.562C347.938 296.26 345.732 290.904 341.32 286.492C336.909 282.081 331.552 279.875 325.25 279.875C318.948 279.875 313.591 282.081 309.18 286.492C304.768 290.904 302.562 296.26 302.562 302.562C302.562 308.865 304.768 314.221 309.18 318.633C313.591 323.044 318.948 325.25 325.25 325.25ZM325.25 370.625C332.812 370.625 339.871 368.86 346.425 365.331C352.979 361.802 358.399 356.886 362.684 350.584C356.886 347.055 350.836 344.471 344.534 342.833C338.232 341.194 331.804 340.375 325.25 340.375C318.696 340.375 312.268 341.194 305.966 342.833C299.664 344.471 293.614 347.055 287.816 350.584C292.101 356.886 297.521 361.802 304.075 365.331C310.629 368.86 317.688 370.625 325.25 370.625Z" fill="#456700"/>
</g>
<defs>
<clipPath id="clip0_371_13">
<rect width="470" height="470" fill="white"/>
</clipPath>
</defs>
</svg>
